<svg xmlns="http://www.w3.org/2000/svg" viewBox="362 226 159 164"><g data-item-type="text" data-item="Business" class="logo__item"><text data-part-id="logo__item--business" dy="0" alignment-baseline="auto" font-family="Droid Serif" font-size="32" fill="#a0acaf" letter-spacing="0" data-font-family="Droid Serif" data-font-weight="normal" data-font-style="normal" data-ttf-url="/builder_assets/fontsttf/font-montserrat-bold-normal.ttf" data-font-filename="droid-serif-normal-normal" transform="translate(531.7265625 351.92264168) scale(5.29527)" class="logo__item__inner"/></g><g data-item-type="image" data-item="Image" class="logo__item"><g class="logo__item__inner"><path fill-rule="evenodd" clip-rule="evenodd" fill="#a0acaf" d="M503.3743423 324.01407575c.95487851-3.81951406 1.6710374-7.75838793 1.90975703-11.57790198l.1193598-2.26783647 13.60701883-2.38719628-1.43231777-15.27805622-13.72637864.35807944-.59679907-2.14847665c-.95487851-3.70015424-2.38719628-7.40030848-4.05823368-10.98110291l-.95487851-2.02911684 10.50366365-8.95198607-8.71326644-12.41342067-11.8166216 7.28094866-1.55167759-1.55167758c-2.74527573-2.74527573-5.72927108-5.25183182-8.95198606-7.40030848l-1.79039722-1.19359814 4.65503276-13.12957956-13.72637863-6.32607016-6.56478979 12.29406087-2.14847665-.59679907c-3.70015424-.95487852-7.5196683-1.6710374-11.33918235-1.90975703l-2.14847665-.35807944-2.38719629-13.84573845-14.91997677 1.55167758.23871963 14.08445808-2.02911685.47743926c-3.70015424 1.07423832-7.28094866 2.38719628-10.86174309 4.1775935l-1.90975702.9548785-8.83262625-10.74238327-12.17470105 8.95198606 7.16158885 11.93598142-1.55167758 1.55167759c-2.74527573 2.74527572-5.13247201 5.8486309-7.28094867 9.07134588l-1.19359814 1.7903972-12.89085993-4.77439256-6.20671034 13.96509826 12.05534123 6.80350941-.59679907 2.14847666c-.95487851 3.70015424-1.55167758 7.6390281-1.90975703 11.57790197l-.11935981 2.26783647-13.60701882 2.38719629 1.43231777 15.27805621 13.72637863-.35807944.59679907 2.14847665c.95487852 3.81951406 2.38719629 7.5196683 4.05823369 10.98110291l.95487851 2.02911684-10.50366365 8.95198607 8.71326644 12.41342067 11.8166216-7.28094866 1.55167759 1.55167758c2.74527572 2.74527573 5.72927108 5.25183183 8.95198606 7.40030848l1.79039721 1.19359814-4.77439256 13.24893938 13.72637863 6.32607015.47743926-.8355187.1193598-20.1718086c-17.90397212-8.4745468-30.91419187-26.0204395-32.9433087-47.26648642-1.5516776-15.51677584 2.98399535-30.67547224 12.77150011-42.73081348 9.54878514-12.05534123 23.39452358-19.45564971 38.55321998-21.0073273 1.90975703-.23871962 3.81951406-.23871962 5.72927109-.23871962 29.60123392 0 54.06999582 22.6783647 57.05399118 52.75703787 3.10335517 32.10779002-20.05244878 60.6347856-51.44407992 63.8575006-1.90975702.23871962-3.81951405.23871962-5.60991126.23871962h-.23871963l.11935981 19.09757027.11935982.71615889 14.91997677-1.55167759-.35807944-14.08445807 2.14847665-.59679907c3.70015424-1.07423833 7.40030848-2.38719629 10.8617431-4.1775935l1.90975702-.95487851 8.83262625 10.74238327 12.17470105-8.95198606-7.16158885-12.05534124 1.55167758-1.55167758c2.62591591-2.74527573 5.13247201-5.8486309 7.28094867-9.07134588l1.19359814-1.79039721 12.89085993 4.77439257 6.20671034-13.96509826-12.05534123-6.80350941.59679907-2.02911684z" data-part-id="logo__item--logo_0__0"/><path fill="none" d="M481.5314963 333.44350107c1.55167759-1.55167759 1.55167759-4.1775935 0-5.72927108-1.55167758-1.55167759-4.05823368-1.55167759-5.60991127 0-1.55167758 1.55167758-1.55167758 4.1775935 0 5.72927108 1.55167759 1.6710374 4.05823369 1.6710374 5.60991127 0z" data-part-id="logo__item--logo_0__1"/><path fill="none" d="M468.64063637 284.8640567c1.55167758-1.5516776 1.55167758-4.1775935 0-5.7292711-1.55167759-1.55167758-4.05823368-1.67103739-5.60991127 0-1.55167758 1.5516776-1.55167758 4.1775935 0 5.7292711 1.43231777 1.55167758 3.93887387 1.55167758 5.60991127 0z" data-part-id="logo__item--logo_0__2"/><path fill="none" d="M413.3770424 279.1347856c-1.55167759 1.5516776-1.55167759 4.1775935 0 5.7292711 1.55167758 1.55167758 4.05823368 1.55167758 5.60991126 0 1.55167759-1.5516776 1.55167759-4.1775935 0-5.7292711-1.43231777-1.55167758-4.05823368-1.55167758-5.60991126 0z" data-part-id="logo__item--logo_0__3"/><path fill="none" d="M402.3959395 324.73023463c-1.5516776 1.55167759-1.5516776 4.1775935 0 5.72927108 1.55167758 1.55167759 4.05823367 1.55167759 5.60991126 0 1.55167758-1.55167758 1.55167758-4.1775935 0-5.72927108-1.55167759-1.55167758-4.05823368-1.55167758-5.60991127 0z" data-part-id="logo__item--logo_0__4"/><path fill="none" d="M441.30723892 330.45950571c1.55167758-1.55167758 1.55167758-4.1775935 0-5.72927108-1.55167759-1.55167758-4.05823368-1.55167758-5.60991127 0-1.55167758 1.55167759-1.55167758 4.1775935 0 5.72927108 1.55167759 1.6710374 4.05823368 1.6710374 5.60991127 0z" data-part-id="logo__item--logo_0__5"/><path fill="none" d="M441.30723892 330.45950571c1.55167758-1.55167758 1.55167758-4.1775935 0-5.72927108-1.55167759-1.55167758-4.05823368-1.55167758-5.60991127 0-1.55167758 1.55167759-1.55167758 4.1775935 0 5.72927108 1.55167759 1.6710374 4.05823368 1.6710374 5.60991127 0z" data-part-id="logo__item--logo_0__6"/><path fill="none" d="M468.64063637 284.8640567c1.55167758-1.5516776 1.55167758-4.1775935 0-5.7292711-1.55167759-1.55167758-4.05823368-1.67103739-5.60991127 0-1.55167758 1.5516776-1.55167758 4.1775935 0 5.7292711 1.43231777 1.55167758 3.93887387 1.55167758 5.60991127 0z" data-part-id="logo__item--logo_0__7"/><path fill="#F15B27" d="M484.39613184 324.84959444c-3.10335517-3.22271498-8.23582718-3.10335516-11.33918235 0-2.26783647 2.38719629-2.86463554 5.8486309-1.79039721 8.83262626l-27.33339745 2.14847665c-.47743926 0-.95487851.23871963-1.31295796.59679907l-6.32607015 6.56478978v-7.5196683c2.74527573.7161589 5.72927108.11935982 7.87774774-2.02911683 3.10335517-3.22271499 3.10335517-8.355187 0-11.57790198-3.10335517-3.22271498-8.23582718-3.10335517-11.33918235 0-2.86463554 2.98399535-2.98399535 7.6390281-.59679907 10.8617431l.23871963 52.2795986c-1.6710374-.23871962-3.22271499-.47743925-4.89375238-.71615888l.35807944-61.23158468 33.6594676-33.89818723c3.10335517 1.79039721 7.04222904 1.43231777 9.66814495-1.19359814 3.10335517-3.10335517 3.22271498-8.355187.11935981-11.57790198-3.10335516-3.22271498-8.23582717-3.22271498-11.33918234 0-2.62591592 2.62591592-3.10335517 6.80350941-1.31295796 9.90686458l-18.02333194 18.02333194-17.54589269-18.14269175c1.79039721-3.10335517 1.43231777-7.28094867-1.19359814-9.90686458-3.10335517-3.22271498-8.23582718-3.22271498-11.33918235 0-3.10335517 3.22271498-3.22271498 8.355187-.11935981 11.57790198 2.6259159 2.74527572 6.6841496 3.10335516 9.66814495 1.31295795l17.6652525 18.14269176-13.24893938 13.36829919c-.35807944.35807944-.59679907.95487851-.59679907 1.43231777l-.11935981 21.36540674-11.6972618-11.8166216c1.79039722-3.10335518 1.43231778-7.28094867-1.31295795-9.90686458-3.10335517-3.10335517-8.23582718-3.10335517-11.33918235.11935981-3.10335517 3.22271498-3.10335517 8.355187.11935982 11.57790198 2.6259159 2.6259159 6.68414959 2.98399535 9.78750476 1.19359814l14.56189733 14.68125714-.23871963 34.13690686v2.38719629c1.31295796.35807944 2.62591591.59679907 4.05823368.8355187 1.6710374.23871962 3.22271499.59679907 4.89375239.71615888 1.31295795.11935982 2.6259159.23871963 4.05823368.35807944v-2.26783647l-.23871963-36.52410314 8.59390662-8.83262625 29.4818741-2.38719628c3.10335518 2.02911684 7.28094867 1.6710374 10.0262244-1.19359814 2.98399535-3.3420748 2.86463554-8.59390663-.23871963-11.6972618zm-21.36540674-45.71480883c1.55167759-1.55167759 4.05823368-1.55167759 5.60991127 0 1.55167758 1.55167758 1.55167758 4.1775935 0 5.72927108-1.55167759 1.55167759-4.05823368 1.55167759-5.60991127 0-1.6710374-1.55167758-1.6710374-4.1775935 0-5.72927108zm-44.04377144 5.72927108c-1.55167758 1.55167759-4.05823368 1.55167759-5.60991126 0-1.55167759-1.55167758-1.55167759-4.1775935 0-5.72927108 1.55167758-1.55167759 4.05823368-1.55167759 5.60991126 0 1.6710374 1.6710374 1.55167759 4.1775935 0 5.72927108zm-10.9811029 45.59544902c-1.55167759 1.55167759-4.05823368 1.55167759-5.60991127 0-1.55167758-1.55167758-1.55167758-4.1775935 0-5.72927108 1.55167759-1.55167758 4.05823368-1.55167758 5.60991127 0 1.55167758 1.55167759 1.55167758 4.1775935 0 5.72927108zm27.6914769-5.72927108c1.55167758-1.55167758 4.05823367-1.6710374 5.60991126 0 1.55167758 1.55167759 1.55167758 4.1775935 0 5.72927108-1.55167759 1.6710374-4.05823368 1.6710374-5.60991127 0-1.55167758-1.55167758-1.55167758-4.05823368 0-5.72927108zm45.83416864 8.71326644c-1.55167758 1.55167758-4.05823368 1.55167758-5.60991127 0-1.55167758-1.55167759-1.55167758-4.1775935 0-5.72927108 1.55167759-1.55167759 4.05823369-1.6710374 5.60991127 0 1.55167759 1.55167758 1.55167759 4.1775935 0 5.72927108z" data-part-id="logo__item--logo_0__8"/></g></g></svg>