<svg xmlns="http://www.w3.org/2000/svg" viewBox="586 236 245 126"><g data-item-type="image" data-item="Image" class="logo__item"><g class="logo__item__inner"><path fill-rule="evenodd" clip-rule="evenodd" fill="#153037" d="M694.32453418 311.56037736c.7245283-2.8981132 1.26792452-5.88679245 1.4490566-8.78490566l.09056604-1.72075472 10.3245283-1.81132075-1.08679245-11.59245283-10.41509434.2716981-.4528302-1.63018867c-.7245283-2.80754717-1.81132075-5.61509434-3.07924528-8.33207547l-.7245283-1.53962264 7.96981132-6.79245283-6.61132075-9.41886793-8.96603774 5.5245283-1.17735849-1.17735849c-2.08301887-2.08301886-4.3471698-3.98490566-6.79245283-5.61509434l-1.35849056-.90566037 3.53207547-9.96226415-10.41509434-4.8-4.98113208 9.32830188-1.63018868-.45283019c-2.80754717-.7245283-5.70566037-1.26792452-8.60377358-1.4490566l-1.63018868-.27169811-1.81132076-10.50566038L636.63396814 241.1l.18113207 10.68679245-1.53962264.36226415c-2.80754717.81509434-5.5245283 1.81132076-8.24150943 3.16981132l-1.4490566.7245283-6.7018868-8.15094339-9.23773585 6.79245283 5.43396227 9.05660377-1.1773585 1.1773585c-2.08301886 2.08301886-3.89433962 4.43773584-5.5245283 6.88301886l-.90566037 1.35849057-9.78113208-3.62264151-4.70943396 10.59622641 9.14716981 5.16226416-.45283019 1.63018867c-.7245283 2.80754717-1.17735849 5.79622642-1.4490566 8.78490566l-.09056604 1.72075472-10.3245283 1.81132076 1.08679245 11.59245283 10.41509434-.27169812.45283019 1.63018868c.7245283 2.89811321 1.81132075 5.70566038 3.07924528 8.33207547l.7245283 1.53962265-7.96981132 6.79245283 6.61132076 9.41886792 8.96603773-5.5245283 1.1773585 1.17735849c2.08301886 2.08301887 4.3471698 3.98490566 6.79245282 5.61509434l1.35849057.90566038-3.6226415 10.05283018 10.41509433 4.8.36226415-.63396226.09056604-15.30566038C616.1660436 332.93396226 606.2943455 319.62075472 604.75472285 303.5c-1.17735849-11.7735849 2.26415095-23.2754717 9.69056604-32.4226415 7.24528302-9.14716982 17.7509434-14.76226416 29.2528302-15.93962265 1.4490566-.18113208 2.8981132-.18113208 4.3471698-.18113208 22.46037736 0 41.0264151 17.20754717 43.29056604 40.03018868 2.35471698 24.36226415-15.21509434 46.00754717-39.03396226 48.4528302-1.4490566.18113207-2.89811321.18113207-4.25660378.18113207h-.18113207l.09056603 14.49056603.09056604.54339623 11.32075472-1.17735849-.27169811-10.68679245 1.63018868-.4528302c2.80754716-.81509433 5.61509433-1.81132075 8.24150943-3.16981131l1.4490566-.7245283 6.7018868 8.1509434 9.23773584-6.79245284-5.43396226-9.1471698 1.1773585-1.1773585c1.99245282-2.08301887 3.89433961-4.43773585 5.5245283-6.88301887l.90566037-1.35849056 9.78113208 3.6226415 4.70943396-10.5962264L693.87170399 313.1l.45283019-1.53962264z" data-part-id="logo__item--logo_0__0"/><path fill="none" d="M677.75094927 318.71509434c1.17735849-1.1773585 1.17735849-3.16981132 0-4.34716981-1.1773585-1.1773585-3.07924528-1.1773585-4.25660377 0-1.1773585 1.17735849-1.1773585 3.16981132 0 4.34716981 1.17735849 1.26792453 3.07924528 1.26792453 4.25660377 0z" data-part-id="logo__item--logo_0__1"/><path fill="none" d="M667.9698172 281.85471698c1.17735848-1.17735849 1.17735848-3.16981132 0-4.34716981-1.1773585-1.1773585-3.07924529-1.26792453-4.25660378 0-1.17735849 1.17735849-1.17735849 3.16981132 0 4.34716981 1.08679245 1.1773585 2.98867925 1.1773585 4.25660377 0z" data-part-id="logo__item--logo_0__2"/><path fill="none" d="M626.03774172 277.50754717c-1.17735849 1.17735849-1.17735849 3.16981132 0 4.34716981 1.1773585 1.1773585 3.07924529 1.1773585 4.25660378 0 1.17735849-1.17735849 1.17735849-3.16981132 0-4.34716981-1.08679246-1.1773585-3.07924529-1.1773585-4.25660378 0z" data-part-id="logo__item--logo_0__3"/><path fill="none" d="M617.70566625 312.10377358c-1.17735849 1.1773585-1.17735849 3.16981133 0 4.34716982 1.1773585 1.17735849 3.07924528 1.17735849 4.25660377 0 1.1773585-1.1773585 1.1773585-3.16981132 0-4.34716982-1.17735849-1.17735849-3.07924528-1.17735849-4.25660377 0z" data-part-id="logo__item--logo_0__4"/><path fill="none" d="M647.23019455 316.4509434c1.1773585-1.1773585 1.1773585-3.16981132 0-4.34716982-1.17735849-1.17735849-3.07924528-1.17735849-4.25660377 0-1.1773585 1.1773585-1.1773585 3.16981133 0 4.34716982 1.17735849 1.26792452 3.07924528 1.26792452 4.25660377 0z" data-part-id="logo__item--logo_0__5"/><path fill="none" d="M647.23019455 316.4509434c1.1773585-1.1773585 1.1773585-3.16981132 0-4.34716982-1.17735849-1.17735849-3.07924528-1.17735849-4.25660377 0-1.1773585 1.1773585-1.1773585 3.16981133 0 4.34716982 1.17735849 1.26792452 3.07924528 1.26792452 4.25660377 0z" data-part-id="logo__item--logo_0__6"/><path fill="none" d="M667.9698172 281.85471698c1.17735848-1.17735849 1.17735848-3.16981132 0-4.34716981-1.1773585-1.1773585-3.07924529-1.26792453-4.25660378 0-1.17735849 1.17735849-1.17735849 3.16981132 0 4.34716981 1.08679245 1.1773585 2.98867925 1.1773585 4.25660377 0z" data-part-id="logo__item--logo_0__7"/><path fill="#F15B27" d="M679.92453418 312.19433962c-2.35471699-2.44528302-6.2490566-2.35471698-8.60377359 0-1.72075472 1.81132076-2.1735849 4.43773585-1.35849057 6.7018868l-20.73962264 1.63018867c-.36226415 0-.7245283.18113208-.99622641.4528302l-4.8 4.98113207v-5.70566038c2.08301887.54339623 4.3471698.09056604 5.97735849-1.53962264 2.35471698-2.44528302 2.35471698-6.33962264 0-8.78490566-2.35471698-2.44528302-6.2490566-2.35471698-8.60377359 0-2.1735849 2.26415094-2.26415094 5.79622641-.45283019 8.24150943l.18113208 39.66792453c-1.26792453-.18113207-2.44528302-.36226415-3.71320755-.54339622l.27169812-46.46037736 25.53962264-25.72075472c2.35471698 1.35849057 5.34339622 1.08679245 7.33584905-.90566038 2.35471699-2.35471698 2.44528302-6.33962264.09056604-8.78490566-2.35471698-2.44528302-6.2490566-2.44528302-8.60377358 0-1.99245283 1.99245283-2.35471698 5.16226415-.99622642 7.51698113l-13.6754717 13.6754717-13.31320754-13.76603773c1.35849056-2.35471698 1.08679245-5.5245283-.90566038-7.51698114-2.35471698-2.44528301-6.2490566-2.44528301-8.60377359 0-2.35471698 2.44528302-2.44528301 6.33962265-.09056603 8.78490566 1.99245283 2.08301887 5.07169811 2.35471699 7.33584905.99622642l13.40377359 13.76603774-10.0528302 10.14339622c-.2716981.27169812-.45283018.7245283-.45283018 1.08679245l-.09056604 16.21132076-8.8754717-8.96603774c1.35849057-2.35471698 1.08679246-5.5245283-.99622641-7.51698113-2.35471698-2.35471698-6.2490566-2.35471698-8.60377359.09056604-2.35471698 2.44528302-2.35471698 6.33962264.09056604 8.78490566 1.99245283 1.99245283 5.07169812 2.26415094 7.4264151.90566038l11.0490566 11.13962264-.18113207 25.9018868v1.81132075c.99622641.2716981 1.99245283.45283018 3.07924528.63396226 1.26792453.18113208 2.44528302.45283019 3.71320755.54339623.99622641.09056603 1.99245283.18113207 3.07924528.2716981v-1.7207547l-.18113208-27.71320755 6.52075472-6.7018868 22.36981132-1.81132075c2.35471698 1.53962264 5.5245283 1.26792453 7.60754717-.90566038 2.26415094-2.53584906 2.1735849-6.52075472-.18113207-8.8754717zm-16.21132076-34.68679245c1.1773585-1.1773585 3.07924528-1.1773585 4.25660377 0 1.1773585 1.17735849 1.1773585 3.16981132 0 4.34716981-1.17735849 1.1773585-3.07924528 1.1773585-4.25660377 0-1.26792453-1.17735849-1.26792453-3.16981132 0-4.34716981zm-33.41886792 4.34716981c-1.1773585 1.1773585-3.07924529 1.1773585-4.25660378 0-1.17735849-1.17735849-1.17735849-3.16981132 0-4.34716981 1.1773585-1.1773585 3.07924529-1.1773585 4.25660378 0 1.26792452 1.26792453 1.17735849 3.16981132 0 4.34716981zm-8.33207548 34.59622642c-1.17735849 1.17735849-3.07924528 1.17735849-4.25660377 0-1.17735849-1.1773585-1.17735849-3.16981132 0-4.34716982 1.1773585-1.17735849 3.07924528-1.17735849 4.25660377 0 1.1773585 1.1773585 1.1773585 3.16981133 0 4.34716982zm21.01132076-4.34716982c1.17735849-1.17735849 3.07924528-1.26792452 4.25660377 0 1.1773585 1.1773585 1.1773585 3.16981133 0 4.34716982-1.17735849 1.26792452-3.07924528 1.26792452-4.25660377 0-1.1773585-1.1773585-1.1773585-3.07924529 0-4.34716982zm34.77735849 6.61132076c-1.1773585 1.17735849-3.07924528 1.17735849-4.25660377 0-1.1773585-1.1773585-1.1773585-3.16981132 0-4.34716981 1.17735849-1.1773585 3.07924528-1.26792453 4.25660377 0 1.17735849 1.17735849 1.17735849 3.16981132 0 4.34716981z" data-part-id="logo__item--logo_0__8"/></g></g></svg>