<svg xmlns="http://www.w3.org/2000/svg" viewBox="546 236 197 165"><g data-item-type="text" data-item="Business" class="logo__item"><text data-part-id="logo__item--business" dy="0" alignment-baseline="auto" font-family="Montserrat" font-size="32" fill="#153037" letter-spacing="0" font-weight="bold" data-font-family="Montserrat" data-font-weight="bold" data-font-style="normal" data-ttf-url="/builder_assets/fontsttf/font-montserrat-bold-normal.ttf" transform="translate(547.727 398.923)" class="logo__item__inner">Matrix Solns</text></g><g data-item-type="image" data-item="Image" class="logo__item"><g class="logo__item__inner"><path fill-rule="evenodd" clip-rule="evenodd" fill="#153037" d="M694.325 311.56c.724-2.898 1.267-5.886 1.449-8.785l.09-1.72 10.325-1.812-1.087-11.592-10.415.272-.453-1.63c-.725-2.808-1.811-5.616-3.08-8.333l-.724-1.54 7.97-6.792-6.611-9.419-8.966 5.525-1.178-1.177c-2.083-2.083-4.347-3.985-6.792-5.615l-1.359-.906 3.532-9.962-10.415-4.8-4.98 9.328-1.631-.453c-2.808-.724-5.706-1.268-8.604-1.449l-1.63-.272-1.811-10.505-11.321 1.177.181 10.687-1.54.362c-2.807.815-5.524 1.811-8.241 3.17l-1.45.724-6.701-8.15-9.238 6.792 5.434 9.057-1.177 1.177c-2.083 2.083-3.894 4.438-5.525 6.883l-.905 1.358-9.781-3.622-4.71 10.596 9.147 5.162-.453 1.63c-.724 2.808-1.177 5.797-1.449 8.785l-.09 1.721-10.325 1.811 1.087 11.593 10.415-.272.453 1.63c.725 2.898 1.811 5.706 3.08 8.332l.724 1.54-7.97 6.792 6.611 9.42 8.966-5.525 1.178 1.177c2.083 2.083 4.347 3.985 6.792 5.615l1.359.906-3.623 10.053 10.415 4.8.362-.634.09-15.306c-13.584-6.43-23.456-19.743-24.995-35.864-1.178-11.774 2.264-23.275 9.69-32.423 7.246-9.147 17.751-14.762 29.253-15.94 1.45-.18 2.898-.18 4.347-.18 22.46 0 41.027 17.207 43.29 40.03 2.356 24.362-15.214 46.007-39.033 48.453-1.45.18-2.898.18-4.257.18h-.18l.09 14.491.09.544 11.321-1.178-.272-10.686 1.63-.453c2.808-.815 5.616-1.812 8.242-3.17l1.45-.725 6.701 8.151 9.238-6.792-5.434-9.147 1.177-1.178a51.08 51.08 0 0 0 5.525-6.883l.905-1.358 9.781 3.622 4.71-10.596-9.147-5.162.453-1.54z" data-part-id="logo__item--logo_0__0"/><path fill="none" d="M677.75 318.715c1.178-1.177 1.178-3.17 0-4.347a3.006 3.006 0 0 0-4.256 0c-1.177 1.177-1.177 3.17 0 4.347 1.178 1.268 3.08 1.268 4.257 0z" data-part-id="logo__item--logo_0__1"/><path fill="none" d="M667.97 281.855c1.177-1.178 1.177-3.17 0-4.347-1.178-1.178-3.08-1.268-4.257 0-1.177 1.177-1.177 3.17 0 4.347 1.087 1.177 2.989 1.177 4.257 0z" data-part-id="logo__item--logo_0__2"/><path fill="none" d="M626.038 277.508c-1.178 1.177-1.178 3.17 0 4.347a3.006 3.006 0 0 0 4.256 0c1.178-1.178 1.178-3.17 0-4.347-1.086-1.178-3.079-1.178-4.256 0z" data-part-id="logo__item--logo_0__3"/><path fill="none" d="M617.706 312.104c-1.178 1.177-1.178 3.17 0 4.347a3.006 3.006 0 0 0 4.256 0c1.178-1.177 1.178-3.17 0-4.347a3.006 3.006 0 0 0-4.256 0z" data-part-id="logo__item--logo_0__4"/><path fill="none" d="M647.23 316.45c1.178-1.176 1.178-3.169 0-4.346a3.006 3.006 0 0 0-4.256 0c-1.178 1.177-1.178 3.17 0 4.347 1.177 1.268 3.079 1.268 4.256 0z" data-part-id="logo__item--logo_0__5"/><path fill="none" d="M647.23 316.45c1.178-1.176 1.178-3.169 0-4.346a3.006 3.006 0 0 0-4.256 0c-1.178 1.177-1.178 3.17 0 4.347 1.177 1.268 3.079 1.268 4.256 0z" data-part-id="logo__item--logo_0__6"/><path fill="none" d="M667.97 281.855c1.177-1.178 1.177-3.17 0-4.347-1.178-1.178-3.08-1.268-4.257 0-1.177 1.177-1.177 3.17 0 4.347 1.087 1.177 2.989 1.177 4.257 0z" data-part-id="logo__item--logo_0__7"/><path fill="#F15B27" d="M679.925 312.194c-2.355-2.445-6.25-2.354-8.604 0-1.721 1.812-2.174 4.438-1.359 6.702l-20.74 1.63c-.362 0-.724.182-.996.453l-4.8 4.981v-5.705c2.083.543 4.348.09 5.978-1.54a6.345 6.345 0 0 0 0-8.785c-2.355-2.445-6.25-2.355-8.604 0-2.174 2.264-2.264 5.796-.453 8.242l.181 39.668c-1.268-.182-2.445-.363-3.713-.544l.272-46.46 25.54-25.72c2.354 1.358 5.343 1.086 7.335-.907 2.355-2.354 2.446-6.34.09-8.784a5.962 5.962 0 0 0-8.603 0c-1.992 1.992-2.355 5.162-.996 7.517l-13.676 13.675-13.313-13.766c1.359-2.355 1.087-5.525-.906-7.517a5.962 5.962 0 0 0-8.603 0c-2.355 2.445-2.446 6.34-.09 8.785 1.992 2.083 5.07 2.355 7.335.996l13.404 13.766-10.053 10.144a1.671 1.671 0 0 0-.453 1.086l-.09 16.212-8.876-8.966c1.359-2.355 1.087-5.525-.996-7.517-2.355-2.355-6.25-2.355-8.604.09a6.26 6.26 0 0 0 .09 8.785c1.993 1.993 5.072 2.264 7.427.906l11.05 11.14-.182 25.901v1.812c.996.271 1.992.452 3.08.634 1.267.18 2.445.452 3.712.543.997.09 1.993.181 3.08.272v-1.721l-.181-27.713 6.52-6.702 22.37-1.812c2.355 1.54 5.525 1.268 7.608-.905 2.264-2.536 2.173-6.52-.181-8.876zm-16.212-34.686a3.006 3.006 0 0 1 4.257 0c1.177 1.177 1.177 3.17 0 4.347a3.006 3.006 0 0 1-4.257 0 2.96 2.96 0 0 1 0-4.347zm-33.419 4.347a3.006 3.006 0 0 1-4.256 0c-1.178-1.178-1.178-3.17 0-4.347a3.006 3.006 0 0 1 4.256 0c1.268 1.267 1.178 3.17 0 4.347zm-8.332 34.596a3.006 3.006 0 0 1-4.256 0c-1.178-1.177-1.178-3.17 0-4.347a3.006 3.006 0 0 1 4.256 0c1.178 1.177 1.178 3.17 0 4.347zm21.012-4.347c1.177-1.178 3.079-1.268 4.256 0 1.178 1.177 1.178 3.17 0 4.347-1.177 1.268-3.08 1.268-4.256 0-1.178-1.177-1.178-3.08 0-4.347zm34.777 6.611a3.006 3.006 0 0 1-4.257 0c-1.177-1.177-1.177-3.17 0-4.347 1.178-1.177 3.08-1.268 4.257 0 1.177 1.177 1.177 3.17 0 4.347z" data-part-id="logo__item--logo_0__8"/></g></g></svg>